<svg width="7" height="5" viewBox="0 0 7 5" fill="none" xmlns="http://www.w3.org/2000/svg">
<path d="M2.91033 4.77692L0.115642 1.52391C0.077095 1.47904 0.0483129 1.43059 0.0292962 1.37854C0.0102794 1.32649 0.000513966 1.27025 0 1.20983C0 1.09018 0.0354637 0.985484 0.106391 0.895746C0.177318 0.806008 0.270346 0.761139 0.385475 0.761139H6.24469C6.36033 0.761139 6.45362 0.806008 6.52455 0.895746C6.59547 0.985484 6.63068 1.09018 6.63016 1.20983C6.63016 1.23974 6.59162 1.34444 6.51452 1.52391L3.71983 4.77692C3.65559 4.8517 3.59134 4.90405 3.52709 4.93396C3.46285 4.96387 3.39218 4.97883 3.31508 4.97883C3.23799 4.97883 3.16732 4.96387 3.10307 4.93396C3.03883 4.90405 2.97458 4.8517 2.91033 4.77692Z" fill="#ED3545"/>
</svg>
