<svg width="26" height="26" viewBox="0 0 26 26" fill="none" xmlns="http://www.w3.org/2000/svg">
<path d="M13 1.625C6.6625 1.625 1.625 6.6625 1.625 13C1.625 19.3375 6.6625 24.375 13 24.375C19.3375 24.375 24.375 19.3375 24.375 13C24.375 6.6625 19.3375 1.625 13 1.625ZM13 22.75C7.6375 22.75 3.25 18.3625 3.25 13C3.25 7.6375 7.6375 3.25 13 3.25C18.3625 3.25 22.75 7.6375 22.75 13C22.75 18.3625 18.3625 22.75 13 22.75Z" fill="#303030"/>
<path d="M17.3875 18.6875L13 14.3L8.6125 18.6875L7.3125 17.3875L11.7 13L7.3125 8.6125L8.6125 7.3125L13 11.7L17.3875 7.3125L18.6875 8.6125L14.3 13L18.6875 17.3875L17.3875 18.6875Z" fill="#303030"/>
</svg>
