<svg width="12" height="14" viewBox="0 0 12 14" fill="none" xmlns="http://www.w3.org/2000/svg">
<path d="M6.14693 6.65C5.6473 6.65 5.16812 6.46563 4.81483 6.13744C4.46153 5.80925 4.26305 5.36413 4.26305 4.9C4.26305 4.43587 4.46153 3.99075 4.81483 3.66256C5.16812 3.33437 5.6473 3.15 6.14693 3.15C6.64657 3.15 7.12574 3.33437 7.47904 3.66256C7.83233 3.99075 8.03081 4.43587 8.03081 4.9C8.03081 5.12981 7.98208 5.35738 7.88741 5.5697C7.79274 5.78202 7.65397 5.97493 7.47904 6.13744C7.3041 6.29994 7.09642 6.42884 6.86786 6.51679C6.6393 6.60474 6.39433 6.65 6.14693 6.65ZM6.14693 0C4.74795 0 3.40627 0.516248 2.41704 1.43518C1.42781 2.3541 0.87207 3.60044 0.87207 4.9C0.87207 8.575 6.14693 14 6.14693 14C6.14693 14 11.4218 8.575 11.4218 4.9C11.4218 3.60044 10.8661 2.3541 9.87682 1.43518C8.88759 0.516248 7.54591 0 6.14693 0Z" fill="#7E7E7E"/>
</svg>
